<svg width="167" height="32" viewBox="0 0 167 32" fill="none" xmlns="http://www.w3.org/2000/svg">
<rect width="31.988" height="31.988" rx="2.66567" fill="#DC0C1C"/>
<circle cx="15.9941" cy="15.9941" r="2.66567" fill="white"/>
<circle cx="15.994" cy="15.9941" r="9.32984" stroke="white" stroke-width="2.66567"/>
<rect x="22.3253" y="11.9956" width="6.99738" height="7.99701" fill="#DC0C1C"/>
<rect x="17.3269" y="15.3277" width="14.6612" height="1.33283" fill="white"/>
<path d="M52.0002 26.0557C50.6407 26.0557 49.3512 25.7958 48.1317 25.2759C46.9121 24.7561 45.8425 24.0264 44.9229 23.0868C44.0032 22.1671 43.2835 21.0975 42.7637 19.878C42.2439 18.6584 41.984 17.3589 41.984 15.9794C41.984 14.5999 42.2339 13.3004 42.7337 12.0809C43.2535 10.8613 43.9832 9.78175 44.9229 8.8421C45.8425 7.92244 46.9121 7.20271 48.1317 6.68291C49.3512 6.1631 50.6407 5.9032 52.0002 5.9032C53.4996 5.9032 54.9191 6.22308 56.2586 6.86284C57.5981 7.5026 58.7977 8.45224 59.8573 9.71177L57.818 11.4511C56.1786 9.57183 54.2394 8.63218 52.0002 8.63218C51.0206 8.63218 50.0809 8.82211 49.1813 9.20196C48.3016 9.58182 47.5219 10.1116 46.8421 10.7914C46.1624 11.4711 45.6326 12.2608 45.2527 13.1605C44.8729 14.0402 44.6829 14.9798 44.6829 15.9794C44.6829 16.9791 44.8729 17.9287 45.2527 18.8284C45.6326 19.708 46.1624 20.4877 46.8421 21.1675C47.5219 21.8472 48.3016 22.377 49.1813 22.7569C50.0809 23.1367 51.0206 23.3267 52.0002 23.3267C54.2394 23.3267 56.1786 22.387 57.818 20.5077L59.8573 22.2471C58.7777 23.5066 57.5681 24.4563 56.2286 25.096C54.9091 25.7358 53.4996 26.0557 52.0002 26.0557Z" fill="white"/>
<path d="M62.5497 25.9357V5.99317H65.282V25.9357H62.5497Z" fill="white"/>
<path d="M70.5173 19.5781C70.5173 20.0579 70.6873 20.5577 71.0271 21.0775C71.387 21.5973 71.7969 22.0372 72.2567 22.397C73.0964 23.0568 74.076 23.3867 75.1956 23.3867C76.9749 23.3867 78.7543 23.1567 79.8738 21.4374L82.4354 22.397C81.6557 23.6566 80.9558 24.4463 79.4366 25.2693C77.9173 26.0922 76.5551 26.0856 75.1956 26.0856C74.176 26.0856 73.2063 25.8957 72.2867 25.5159C71.367 25.116 70.5573 24.5662 69.8576 23.8665C69.1578 23.1667 68.6081 22.357 68.2082 21.4374C67.8283 20.5177 67.6384 19.5481 67.6384 18.5285C67.6384 17.5089 67.8283 16.5392 68.2082 15.6196C68.6081 14.6799 69.1578 13.8602 69.8576 13.1605C70.5373 12.4607 71.337 11.9209 72.2567 11.5411C73.1963 11.1612 74.176 10.9713 75.1956 10.9713C76.2152 10.9713 77.1848 11.1612 78.1045 11.5411C79.0441 11.9209 79.8538 12.4607 80.5336 13.1605C82.013 14.6799 82.7528 16.4393 82.7528 18.4385C82.7528 18.7984 82.7228 19.1782 82.6628 19.5781H70.5173ZM75.1956 13.4304C74.3759 13.4304 73.6062 13.6103 72.8864 13.9702C72.1667 14.33 71.5869 14.8099 71.1471 15.4096C70.7273 15.9894 70.5173 16.6092 70.5173 17.2689H79.8738C79.8738 16.6092 79.6539 15.9894 79.2141 15.4096C78.7942 14.8099 78.2245 14.33 77.5047 13.9702C76.785 13.6103 76.0153 13.4304 75.1956 13.4304Z" fill="white"/>
<path d="M92.1146 25.9357H89.5656L83.6578 10.9413H86.5067L90.8551 21.8872L95.1735 10.9413H98.0224L92.1146 25.9357Z" fill="white"/>
<path d="M132.531 13.6403V25.9357H129.982V13.6403H127.733V10.9413H129.982V5.99317H132.531V10.9413H134.78V13.6403H132.531Z" fill="white"/>
<path d="M161.002 26.0856C159.982 26.0856 159.013 25.8957 158.093 25.5159C157.193 25.116 156.394 24.5662 155.694 23.8665C155.014 23.1867 154.474 22.387 154.075 21.4674C153.695 20.5277 153.505 19.5481 153.505 18.5285C153.505 17.5089 153.695 16.5392 154.075 15.6196C154.474 14.6799 155.014 13.8702 155.694 13.1905C156.394 12.4907 157.193 11.9509 158.093 11.5711C159.013 11.1712 159.982 10.9713 161.002 10.9713C163.361 10.9713 165.36 11.9709 167 13.9702L164.661 15.3197C163.621 14.2201 162.401 13.6703 161.002 13.6703C160.342 13.6703 159.712 13.8002 159.113 14.0601C158.533 14.3001 158.023 14.6399 157.583 15.0798C157.143 15.5196 156.793 16.0394 156.534 16.6392C156.274 17.239 156.144 17.8687 156.144 18.5285C156.144 19.1882 156.274 19.818 156.534 20.4178C156.793 21.0175 157.143 21.5373 157.583 21.9772C158.023 22.417 158.533 22.7669 159.113 23.0268C159.712 23.2667 160.342 23.3867 161.002 23.3867C162.401 23.3867 163.621 22.8369 164.661 21.7373L167 23.0868C165.36 25.086 163.361 26.0856 161.002 26.0856Z" fill="white"/>
<path d="M139.294 19.5478C139.294 20.0276 139.464 20.5275 139.804 21.0473C140.164 21.5671 140.574 22.0069 141.033 22.3668C141.873 23.0265 142.853 23.3564 143.972 23.3564C145.752 23.3564 147.531 23.1265 148.651 21.4071L151.212 22.3668C150.432 23.6263 149.733 24.4161 148.213 25.239C146.694 26.062 145.332 26.0554 143.972 26.0554C142.953 26.0554 141.983 25.8655 141.063 25.4856C140.144 25.0857 139.334 24.536 138.634 23.8362C137.935 23.1365 137.385 22.3268 136.985 21.4071C136.605 20.4875 136.415 19.5178 136.415 18.4982C136.415 17.4786 136.605 16.509 136.985 15.5893C137.385 14.6497 137.935 13.83 138.634 13.1302C139.314 12.4305 140.114 11.8907 141.033 11.5108C141.973 11.131 142.953 10.941 143.972 10.941C144.992 10.941 145.962 11.131 146.881 11.5108C147.821 11.8907 148.631 12.4305 149.31 13.1302C150.79 14.6497 151.529 16.409 151.529 18.4082C151.529 18.7681 151.499 19.148 151.44 19.5478H139.294ZM143.972 13.4001C143.153 13.4001 142.383 13.5801 141.663 13.9399C140.943 14.2998 140.364 14.7796 139.924 15.3794C139.504 15.9592 139.294 16.5789 139.294 17.2387H148.651C148.651 16.5789 148.431 15.9592 147.991 15.3794C147.571 14.7796 147.001 14.2998 146.281 13.9399C145.562 13.5801 144.792 13.4001 143.972 13.4001Z" fill="white"/>
<path d="M101.642 19.5478C101.642 20.0276 101.812 20.5275 102.151 21.0473C102.511 21.5671 102.921 22.0069 103.381 22.3668C104.221 23.0265 105.2 23.3564 106.32 23.3564C108.099 23.3564 109.879 23.1265 110.998 21.4071L113.56 22.3668C112.78 23.6263 112.08 24.4161 110.561 25.239C109.042 26.062 107.679 26.0554 106.32 26.0554C105.3 26.0554 104.331 25.8655 103.411 25.4856C102.491 25.0857 101.682 24.536 100.982 23.8362C100.282 23.1365 99.7323 22.3268 99.3325 21.4071C98.9526 20.4875 98.7627 19.5178 98.7627 18.4982C98.7627 17.4786 98.9526 16.509 99.3325 15.5893C99.7323 14.6497 100.282 13.83 100.982 13.1302C101.662 12.4305 102.461 11.8907 103.381 11.5108C104.321 11.131 105.3 10.941 106.32 10.941C107.339 10.941 108.309 11.131 109.229 11.5108C110.168 11.8907 110.978 12.4305 111.658 13.1302C113.137 14.6497 113.877 16.409 113.877 18.4082C113.877 18.7681 113.847 19.148 113.787 19.5478H101.642ZM106.32 13.4001C105.5 13.4001 104.73 13.5801 104.011 13.9399C103.291 14.2998 102.711 14.7796 102.271 15.3794C101.852 15.9592 101.642 16.5789 101.642 17.2387H110.998C110.998 16.5789 110.778 15.9592 110.338 15.3794C109.918 14.7796 109.349 14.2998 108.629 13.9399C107.909 13.5801 107.14 13.4001 106.32 13.4001Z" fill="white"/>
<path fill-rule="evenodd" clip-rule="evenodd" d="M125.772 12.1393C124.922 11.3933 123.807 10.941 122.587 10.941C119.919 10.941 117.755 13.1042 117.755 15.7726V25.9352H120.421V15.7726C120.421 14.5764 121.391 13.6067 122.587 13.6067C123.071 13.6067 123.517 13.7653 123.878 14.0333L125.772 12.1393Z" fill="white"/>
</svg>
